<svg width="25" height="25" viewBox="0 0 25 25" fill="none" xmlns="http://www.w3.org/2000/svg">
<path d="M12.6949 15.271C13.7305 15.271 14.5699 14.4315 14.5699 13.396C14.5699 12.3605 13.7305 11.521 12.6949 11.521C11.6594 11.521 10.8199 12.3605 10.8199 13.396C10.8199 14.4315 11.6594 15.271 12.6949 15.271Z" stroke="#E0F2FE" stroke-width="1.5" stroke-linecap="round" stroke-linejoin="round"/>
<path d="M12.6949 15.271V17.521" stroke="#E0F2FE" stroke-width="1.5" stroke-linecap="round" stroke-linejoin="round"/>
<path d="M20.1949 8.521H5.19492C4.7807 8.521 4.44492 8.85678 4.44492 9.271V19.771C4.44492 20.1852 4.7807 20.521 5.19492 20.521H20.1949C20.6091 20.521 20.9449 20.1852 20.9449 19.771V9.271C20.9449 8.85678 20.6091 8.521 20.1949 8.521Z" stroke="#E0F2FE" stroke-width="1.5" stroke-linecap="round" stroke-linejoin="round"/>
<path d="M9.31992 8.521V5.146C9.31992 4.25089 9.6755 3.39245 10.3084 2.75951C10.9414 2.12658 11.7998 1.771 12.6949 1.771C13.59 1.771 14.4485 2.12658 15.0814 2.75951C15.7143 3.39245 16.0699 4.25089 16.0699 5.146V8.521" stroke="#E0F2FE" stroke-width="1.5" stroke-linecap="round" stroke-linejoin="round"/>
</svg>
