<svg width="40" height="38" viewBox="0 0 40 38" fill="none" xmlns="http://www.w3.org/2000/svg">
<path d="M30.35 20.7883L16.645 32.1788C15.03 33.5231 12.5 32.4306 12.5 30.3905V7.60946C12.4996 7.15288 12.6377 6.70586 12.8979 6.32194C13.158 5.93802 13.5291 5.63348 13.9667 5.44477C14.4044 5.25606 14.89 5.19119 15.3654 5.25793C15.8409 5.32468 16.286 5.5202 16.6475 5.82108L30.3475 17.2116C30.616 17.4345 30.8312 17.7094 30.9787 18.0179C31.1262 18.3263 31.2025 18.6612 31.2025 19C31.2025 19.3387 31.1262 19.6736 30.9787 19.982C30.8312 20.2905 30.616 20.5654 30.3475 20.7883H30.35Z" fill="#0C4A6E"/>
</svg>
