<svg width="25" height="25" viewBox="0 0 25 25" fill="none" xmlns="http://www.w3.org/2000/svg">
<path d="M12.0615 16.1624C14.1326 16.1624 15.8115 14.4834 15.8115 12.4124C15.8115 10.3413 14.1326 8.66235 12.0615 8.66235C9.99046 8.66235 8.31152 10.3413 8.31152 12.4124C8.31152 14.4834 9.99046 16.1624 12.0615 16.1624Z" stroke="#81D8F7" stroke-width="2" stroke-miterlimit="10"/>
<path d="M16.1865 3.78711H7.93652C5.45124 3.78711 3.43652 5.80183 3.43652 8.28711V16.5371C3.43652 19.0224 5.45124 21.0371 7.93652 21.0371H16.1865C18.6718 21.0371 20.6865 19.0224 20.6865 16.5371V8.28711C20.6865 5.80183 18.6718 3.78711 16.1865 3.78711Z" stroke="#81D8F7" stroke-width="2" stroke-linecap="round" stroke-linejoin="round"/>
<path d="M16.937 8.66211C17.5583 8.66211 18.062 8.15843 18.062 7.53711C18.062 6.91579 17.5583 6.41211 16.937 6.41211C16.3157 6.41211 15.812 6.91579 15.812 7.53711C15.812 8.15843 16.3157 8.66211 16.937 8.66211Z" fill="#81D8F7"/>
</svg>
