<svg width="22" height="25" viewBox="0 0 22 25" fill="none" xmlns="http://www.w3.org/2000/svg">
<path d="M13.3557 12.4121L9.36768 9.41211V15.4121L13.3557 12.4121Z" stroke="#81D8F7" stroke-width="2" stroke-linecap="round" stroke-linejoin="round"/>
<path d="M2.05664 12.4123C2.05664 15.206 2.3142 16.8373 2.50529 17.681C2.55798 17.9099 2.65762 18.1217 2.79617 18.2992C2.93471 18.4767 3.10829 18.615 3.3029 18.7029C6.0862 19.9029 10.6973 19.8748 10.6973 19.8748C10.6973 19.8748 15.3085 19.9029 18.0918 18.7029C18.2864 18.615 18.46 18.4767 18.5985 18.2992C18.7371 18.1217 18.8367 17.9099 18.8894 17.681C19.0805 16.8373 19.338 15.206 19.338 12.4123C19.338 9.61851 19.0805 7.98726 18.8894 7.14351C18.8367 6.91458 18.7371 6.70282 18.5985 6.52532C18.46 6.34781 18.2864 6.20954 18.0918 6.12164C15.3085 4.92164 10.6973 4.94976 10.6973 4.94976C10.6973 4.94976 6.0862 4.92164 3.3029 6.12164C3.10829 6.20954 2.93471 6.34781 2.79617 6.52532C2.65762 6.70282 2.55798 6.91458 2.50529 7.14351C2.3142 7.98726 2.05664 9.61851 2.05664 12.4123Z" stroke="#81D8F7" stroke-width="2" stroke-linecap="round" stroke-linejoin="round"/>
</svg>
